<?xml version="1.0" encoding="utf-8"?>
<!-- Generator: Adobe Illustrator 16.0.4, SVG Export Plug-In . SVG Version: 6.00 Build 0)  -->
<!DOCTYPE svg PUBLIC "-//W3C//DTD SVG 1.1//EN" "http://www.w3.org/Graphics/SVG/1.1/DTD/svg11.dtd">
<svg version="1.1" id="Layer_1" xmlns="http://www.w3.org/2000/svg" xmlns:xlink="http://www.w3.org/1999/xlink" x="0px" y="0px"
	 width="300px" height="300px" viewBox="0 0 300 300" enable-background="new 0 0 300 300" xml:space="preserve">
<g>
	<path fill="#00A651" d="M37.42,127.57V66.88h17.41v60.69H37.42z"/>
	<path fill="#00A651" d="M96.35,127.57l-0.7-4.57c-2.99,3.25-6.42,5.36-10.64,5.36c-5.8,0-9.76-3.87-9.76-11.61
		c0-9.41,6.95-14.34,19.26-16.36v-1.14c0-3.43-1.23-4.75-5.01-4.75c-2.11,0-5.37,0.88-10.11,3.08l-1.76-11.26
		c5.01-1.85,9.67-2.99,16.27-2.99c10.99,0,15.48,4.31,15.48,15.3v28.94H96.35z M94.5,107.34c-3.96,1.85-5.63,4.05-5.63,7.21
		c0,2.2,1.14,3.43,2.64,3.43c0.97,0,1.85-0.35,2.99-1.23V107.34z"/>
	<path fill="#00A651" d="M154.92,127.57V98.81c0-1.5-0.79-2.37-2.2-2.37c-1.14,0-2.2,0.35-3.52,1.14v29.99h-14.78V98.81
		c0-1.5-0.79-2.37-2.29-2.37c-1.14,0-2.11,0.35-3.43,1.14v29.99h-14.86V84.04h12.84l0.7,4.4c3.08-2.9,6.86-5.28,11.35-5.28
		c4.75,0,7.83,1.76,9.32,5.1c2.99-2.81,6.77-5.1,11.17-5.1c7.39,0,10.55,4.05,10.55,11.61v32.81H154.92z"/>
	<path fill="#00A651" d="M210.16,127.57l-0.7-4.57c-2.99,3.25-6.42,5.36-10.64,5.36c-5.8,0-9.76-3.87-9.76-11.61
		c0-9.41,6.95-14.34,19.26-16.36v-1.14c0-3.43-1.23-4.75-5.01-4.75c-2.11,0-5.37,0.88-10.11,3.08l-1.76-11.26
		c5.01-1.85,9.67-2.99,16.27-2.99c10.99,0,15.48,4.31,15.48,15.3v28.94H210.16z M208.31,107.34c-3.96,1.85-5.63,4.05-5.63,7.21
		c0,2.2,1.14,3.43,2.64,3.43c0.97,0,1.85-0.35,2.99-1.23V107.34z"/>
	<path fill="#00A651" d="M248.6,127.57V98.81c0-1.5-0.79-2.37-2.2-2.37c-1.23,0-2.38,0.44-3.69,1.23v29.9h-15.04V84.04h12.93
		l0.79,4.57c3.17-2.99,6.95-5.45,11.52-5.45c7.48,0,10.73,4.05,10.73,11.61v32.81H248.6z"/>
	<path fill="#00A651" d="M91.33,233.82c-7.12,0-13.72-1.41-19.7-4.13l2.2-14.34c6.24,2.99,11.08,4.66,15.39,4.66
		c3.25,0,4.75-1.41,4.75-3.43c0-2.73-1.94-4.4-8.71-8.36c-6.07-3.52-12.84-9.15-12.84-17.94c0-11.43,7.83-18.56,19.53-18.56
		c6.51,0,11.26,1.06,16.18,3.17l-2.2,14.42c-5.01-2.81-9.06-3.78-12.4-3.78c-2.02,0-3.78,1.23-3.78,2.9c0,2.02,1.58,3.43,8.09,7.21
		c6.24,3.61,13.54,9.5,13.54,19.17C111.38,227.23,103.2,233.82,91.33,233.82z"/>
	<path fill="#00A651" d="M144.9,233.21h-20.76l-14.6-58.4l19.26-2.9l6.51,39.84l6.86-39.31h17.85L144.9,233.21z"/>
	<path fill="#00A651" d="M183.51,234.26c-16.27,0-24.54-10.82-24.54-31.4c0-19.79,8.36-31.57,26.56-31.57
		c6.6,0,11.7,1.41,16.01,3.43l-2.38,14.78c-4.4-2.73-8.62-4.31-12.93-4.31c-6.33,0-9.5,5.8-9.5,17.59c0,12.84,2.46,18.03,8.09,18.03
		c1.41,0,2.37-0.26,3.34-0.7v-9.94h-4.75l-2.02-12.49h22.16v31.4C198.02,232.15,191.34,234.26,183.51,234.26z"/>
	<path fill="#00A651" d="M222.21,210.25l-8.53,1.85l-5.72-39.67h19.79L222.21,210.25z M209.46,233.12v-16.89h16.8v16.89H209.46z"/>
</g>
</svg>
